<svg xmlns="http://www.w3.org/2000/svg" width="26" height="17" viewBox="0 0 26 17">
  <g fill="#42A5F5" fill-rule="nonzero">
    <path d="M6.26 7.44a.65.65 0 0 1-.45 1.22L1.58 7.11a1.45 1.45 0 0 1 0-2.71L12.5.33c.33-.12.68-.12 1 0L24.44 4.4a1.45 1.45 0 0 1 0 2.71l-4.24 1.54a.28.28 0 0 0-.18.27v1.61a4.59 4.59 0 0 1-2.86 4.27l-2.4.98a4.59 4.59 0 0 1-3.48 0l-2.42-.98A4.59 4.59 0 0 1 6 10.55a.65.65 0 0 1 1.3 0c0 1.34.8 2.54 2.05 3.04l2.4.99c.8.32 1.7.32 2.5 0l2.4-.99a3.29 3.29 0 0 0 2.06-3.05V8.92c0-.67.4-1.26 1.04-1.49l4.22-1.54a.15.15 0 0 0 0-.28L13.05 1.55a.15.15 0 0 0-.1 0L2.04 5.61a.15.15 0 0 0-.1.14c0 .06.04.12.1.14l4.22 1.55z"/>
    <path d="M16.92 8.4a.65.65 0 1 1 .42 1.22l-3.12 1.08c-.79.27-1.64.27-2.43 0L3.7 7.9a.65.65 0 0 1 .42-1.23l8.1 2.8c.52.17 1.07.17 1.59 0l3.12-1.08z"/>
    <path d="M2.75 11.76V9.53A3.5 3.5 0 0 1 5.7 6.08l7.2-1.13a.65.65 0 0 1 .2 1.28L5.9 7.36a2.2 2.2 0 0 0-1.85 2.17v2.56c0 .2-.1.4-.26.52l-1.1.82v1.62H3.9a.65.65 0 1 1 0 1.3H2.03a.65.65 0 0 1-.65-.65v-2.6c0-.2.1-.4.27-.52l1.1-.82z"/>
  </g>
</svg>