<svg xmlns="http://www.w3.org/2000/svg" width="18" height="21" viewBox="0 0 18 21">
  <g fill="#42A5F5" fill-rule="nonzero">
    <circle cx=".82" cy="5.54" r="1"/>
    <path d="M11.48 3.43a.47.47 0 1 1 0 .95H7.9a.47.47 0 1 1 0-.95h3.58z"/>
    <path d="M7.9 3.43a.47.47 0 0 1 0 .95H6.2a.47.47 0 0 1 0-.95h1.7zM2.38 4.82a.47.47 0 1 1-.53-.78c.57-.4 1.25-.6 1.95-.6h.5a.47.47 0 1 1 0 .94h-.5c-.5 0-1 .15-1.42.44zM13.39 4.38a.47.47 0 0 1 0-.95h.39a3.47 3.47 0 0 1 3.46 3.46v9.98a3.47 3.47 0 0 1-3.47 3.46H3.8a3.47 3.47 0 0 1-3.46-3.46V6.89a.47.47 0 0 1 .94 0v9.98a2.52 2.52 0 0 0 2.52 2.51h9.97a2.52 2.52 0 0 0 2.52-2.51V6.89a2.52 2.52 0 0 0-2.52-2.51h-.38z"/>
    <path d="M4.77 3.9a.47.47 0 0 1-.94 0V1.98a1.42 1.42 0 0 1 2.83 0v3.23a.47.47 0 0 1-.95 0V1.98a.47.47 0 0 0-.94 0V3.9zM11.96 3.9a.47.47 0 0 1-.95 0V1.98a1.42 1.42 0 0 1 2.84 0v3.23a.47.47 0 0 1-.95 0V1.98a.47.47 0 0 0-.94 0V3.9zM6.04 10l-1.3 1.3a.47.47 0 1 1-.66-.67l2.1-2.1c.3-.3.8-.09.8.33v6.75h4.42v-6.7a.47.47 0 0 1 .95 0v7.17c0 .26-.21.48-.47.48H6.52a.47.47 0 0 1-.48-.48V10z"/>
    <path d="M13.25 12.13a.47.47 0 1 1 0 .94h-4.1a.47.47 0 0 1-.47-.47V8.92a.47.47 0 0 1 .94 0v3.21h3.63z"/>
  </g>
</svg>