<svg xmlns="http://www.w3.org/2000/svg" width="20" height="23" viewBox="0 0 20 23">
  <g fill="#42A5F5" fill-rule="nonzero">
    <path d="M2.2 5.4a.57.57 0 0 1 1.05.44l-2.14 5.19a.57.57 0 0 1-1.05-.43l2.15-5.2z"/>
    <path d="M3.92 10.63a.57.57 0 0 1 0 1.13c-.97 0-1.76-.79-1.76-1.75V5.62a.57.57 0 0 1 1.14 0v4.39c0 .34.27.62.62.62zM5.56 4.58a.57.57 0 0 1 0-1.13h.79a.57.57 0 0 1 0 1.13h-.79z"/>
    <path d="M5.47.05a.57.57 0 1 1 0 1.13 1.13 1.13 0 1 0 0 2.27.57.57 0 0 1 0 1.13 2.27 2.27 0 0 1 0-4.53zM3.86 19.62a.57.57 0 0 1-1.13.07l-.56-9.62a.57.57 0 1 1 1.13-.06l.56 9.61zM7.45 9.97a.57.57 0 1 1 1.13.07l-.54 9.3a.57.57 0 0 1-1.13-.06l.54-9.3z"/>
    <path d="M7.46 18.85c.31 0 .56.25.56.56 0 .45-.36.81-.8.81H5.58a.81.81 0 0 1-.8-.8v-3.97a.57.57 0 0 1 1.13 0v3.64h1.07c.1-.15.27-.24.47-.24zM14.85 4.58a.57.57 0 0 1 0-1.13h.78A2.27 2.27 0 0 1 17.9 5.7v4.31c0 .97-.79 1.76-1.76 1.76a.57.57 0 0 1 0-1.14c.35 0 .62-.27.62-.62v-4.3c0-.63-.5-1.14-1.13-1.14h-.78z"/>
    <path d="M14.73.05a.57.57 0 1 1 0 1.13 1.13 1.13 0 0 0 0 2.27.57.57 0 1 1 0 1.13 2.27 2.27 0 0 1 0-4.53zM16.63 5.2a.57.57 0 0 1 1.06-.4l2.22 5.81a.57.57 0 1 1-1.06.4L16.63 5.2zM16.74 9.97a.57.57 0 0 1 1.13.07l-.54 9.3a.57.57 0 0 1-1.13-.06l.54-9.3z"/>
    <path d="M16.77 18.85c.32 0 .57.25.57.56 0 .45-.36.81-.81.81h-1.62a.81.81 0 0 1-.81-.8v-4.23a.57.57 0 0 1 1.13 0v3.9h1.08c.1-.15.27-.24.46-.24zM6.74 7.45a.57.57 0 1 1 1.05.43l-2.15 5.2a.57.57 0 1 1-1.05-.43l2.15-5.2z"/>
    <path d="M10.1 6.63a.57.57 0 0 1 0-1.13h.78a2.27 2.27 0 0 1 2.27 2.26v4.32a1.75 1.75 0 0 1-1.75 1.75H8.45a1.75 1.75 0 0 1-1.75-1.75V7.67a.57.57 0 0 1 1.13 0v4.4a.62.62 0 0 0 .62.62h2.95a.62.62 0 0 0 .61-.61V7.76c0-.62-.5-1.13-1.13-1.13h-.78z"/>
    <path d="M10 2.1a.57.57 0 0 1 0 1.13 1.13 1.13 0 1 0 0 2.27.57.57 0 0 1 0 1.13 2.27 2.27 0 1 1 0-4.53zM11.87 7.25a.57.57 0 1 1 1.06-.4l2.23 5.81a.57.57 0 0 1-1.06.4l-2.23-5.81zM8.4 21.67a.57.57 0 1 1-1.13.07l-.57-9.61a.57.57 0 1 1 1.13-.07l.57 9.61zM11.99 12.02a.57.57 0 0 1 1.13.07l-.55 9.3a.57.57 0 1 1-1.13-.06l.55-9.31z"/>
    <path d="M12 20.9c.3 0 .56.25.56.56 0 .45-.37.81-.81.81h-1.62a.81.81 0 0 1-.81-.81v-5.38a.57.57 0 0 1 1.13 0v5.06h1.08c.1-.15.27-.25.46-.25z"/>
  </g>
</svg>