<svg xmlns="http://www.w3.org/2000/svg" width="57" height="49" viewBox="0 0 57 49"><defs><linearGradient id="a" x1="50%" x2="50%" y1="-46.33%" y2="230.22%"><stop offset="0%" stop-color="#FFF"/><stop offset="52%" stop-color="#CCE2E6"/><stop offset="100%" stop-color="#8FA1BB"/></linearGradient><linearGradient id="b" x1="6.75%" x2="93.25%" y1="5125%" y2="3787%"><stop offset="0%" stop-color="#FFF"/><stop offset="52%" stop-color="#CCE2E6"/><stop offset="100%" stop-color="#8FA1BB"/></linearGradient><linearGradient id="c" x1="1500%" x2="1500%" y1="5983%" y2="-2370%"><stop offset="0%" stop-color="#FFF"/><stop offset="52%" stop-color="#CCE2E6"/><stop offset="100%" stop-color="#8FA1BB"/></linearGradient><linearGradient id="d" x1="1501%" x2="1501%" y1="3619%" y2="850%"><stop offset="0%" stop-color="#FFF"/><stop offset="52%" stop-color="#CCE2E6"/><stop offset="100%" stop-color="#8FA1BB"/></linearGradient><linearGradient id="e" x1="750%" x2="750%" y1="5983%" y2="-2370%"><stop offset="0%" stop-color="#FFF"/><stop offset="52%" stop-color="#CCE2E6"/><stop offset="100%" stop-color="#8FA1BB"/></linearGradient><linearGradient id="f" x1="3300%" x2="3300%" y1="5983%" y2="-2370%"><stop offset="0%" stop-color="#FFF"/><stop offset="52%" stop-color="#CCE2E6"/><stop offset="100%" stop-color="#8FA1BB"/></linearGradient><linearGradient id="g" x1="3301%" x2="3301%" y1="3619%" y2="850%"><stop offset="0%" stop-color="#FFF"/><stop offset="52%" stop-color="#CCE2E6"/><stop offset="100%" stop-color="#8FA1BB"/></linearGradient><linearGradient id="h" x1="4050%" x2="4050%" y1="5983%" y2="-2370%"><stop offset="0%" stop-color="#FFF"/><stop offset="52%" stop-color="#CCE2E6"/><stop offset="100%" stop-color="#8FA1BB"/></linearGradient><linearGradient id="i" x1="50%" x2="50%" y1="677.73%" y2="-436%"><stop offset="0%" stop-color="#27E9DE"/><stop offset="52%" stop-color="#03A4EC"/><stop offset="100%" stop-color="#2547A8"/></linearGradient><linearGradient id="j" x1="0%" x2="2400%" y1="1192.66%" y2="-338.65%"><stop offset="0%" stop-color="#27E9DE"/><stop offset="52%" stop-color="#03A4EC"/><stop offset="100%" stop-color="#2547A8"/></linearGradient><linearGradient id="k" x1="2401%" x2="2401%" y1="3919%" y2="1150%"><stop offset="0%" stop-color="#27E9DE"/><stop offset="52%" stop-color="#03A4EC"/><stop offset="100%" stop-color="#2547A8"/></linearGradient><linearGradient id="l" x1="1650%" x2="1650%" y1="6283%" y2="-2070%"><stop offset="0%" stop-color="#27E9DE"/><stop offset="52%" stop-color="#03A4EC"/><stop offset="100%" stop-color="#2547A8"/></linearGradient><linearGradient id="m" x1="3150%" x2="3150%" y1="6283%" y2="-2070%"><stop offset="0%" stop-color="#27E9DE"/><stop offset="52%" stop-color="#03A4EC"/><stop offset="100%" stop-color="#2547A8"/></linearGradient></defs><g fill="none" fill-rule="nonzero"><ellipse cx="28.5" cy="42.75" fill="url(#a)" rx="28.5" ry="6.11"/><path fill="url(#b)" d="M32.57 37.5c-1.12 0-2.03.9-2.03 2.03v6.11a2.04 2.04 0 0 1-4.08 0v-6.1a2.04 2.04 0 0 0-4.07 0v9.18c2.04.14 4 .14 6.11.14 2.1 0 4.07 0 6.1-.15v-9.18c0-1.12-.9-2.03-2.03-2.03z"/><circle cx="16.29" cy="5.09" r="5.09" fill="url(#c)"/><path fill="url(#c)" d="M15.69 12.21a6.28 6.28 0 0 0-5.51 6.34v20.13a2.04 2.04 0 0 0 4.07 0v-6.1a2.04 2.04 0 1 1 4.07 0v6.1a2.04 2.04 0 1 0 4.07 0V18.32a6.1 6.1 0 0 0-6.7-6.1z"/><path fill="url(#d)" d="M12.05 14.02a5.08 5.08 0 0 0 8.5 0 6.08 6.08 0 0 0-4.86-1.8 5.85 5.85 0 0 0-3.64 1.8z"/><circle cx="6.11" cy="18.32" r="2.04" fill="url(#e)"/><circle cx="40.71" cy="5.09" r="5.09" fill="url(#f)"/><path fill="url(#f)" d="M40.12 12.21a6.28 6.28 0 0 0-5.51 6.34v20.13a2.04 2.04 0 1 0 4.07 0v-6.1a2.04 2.04 0 0 1 4.07 0v6.1a2.04 2.04 0 1 0 4.07 0V18.32a6.1 6.1 0 0 0-6.7-6.1z"/><path fill="url(#g)" d="M36.48 14.02a5.08 5.08 0 0 0 8.5 0 6.08 6.08 0 0 0-4.86-1.8 5.85 5.85 0 0 0-3.64 1.8z"/><circle cx="50.89" cy="18.32" r="2.04" fill="url(#h)"/><circle cx="28.5" cy="9.16" r="5.09" fill="url(#i)"/><path fill="url(#j)" d="M27.9 16.29a6.28 6.28 0 0 0-5.5 6.33v20.13a2.04 2.04 0 0 0 4.06 0v-6.1a2.04 2.04 0 0 1 4.08 0v6.1a2.04 2.04 0 1 0 4.07 0V22.39a6.1 6.1 0 0 0-6.7-6.1z"/><path fill="url(#k)" d="M24.27 18.1a5.08 5.08 0 0 0 8.5 0 6.08 6.08 0 0 0-4.87-1.81 5.85 5.85 0 0 0-3.63 1.8z"/><circle cx="18.32" cy="22.39" r="2.04" fill="url(#l)"/><circle cx="38.68" cy="22.39" r="2.04" fill="url(#m)"/></g></svg>