<svg xmlns="http://www.w3.org/2000/svg" viewBox="0 0 46 54"><defs><linearGradient id="a" x1="50%" x2="50%" y1="677.73%" y2="-436%"><stop offset="0%" stop-color="#27E9DE"/><stop offset="52%" stop-color="#03A4EC"/><stop offset="100%" stop-color="#2547A8"/></linearGradient></defs><g fill="none" fill-rule="evenodd"><path fill="#606266" d="M9.58 31.6V15.08a2.32 2.32 0 0 1 4.64 0V31.6c0 5.12-2.24 8.92-8.36 8.92-1.6 0-3.64-.4-4.76-1.08-.68-.36-1.12-1-1.12-1.84 0-1.16.92-2.08 2.08-2.08.36 0 .6.08.92.2 1 .4 2.04.6 2.88.6 2.68 0 3.72-2 3.72-4.72zm13.56-7.92v14.48c0 1.2-.96 2.16-2.16 2.16-1.2 0-2.16-.96-2.16-2.16V23.68c0-1.2.96-2.16 2.16-2.16 1.2 0 2.16.96 2.16 2.16zm-2.16-4.32c-1.64 0-2.56-.96-2.56-2.52 0-1.84.92-2.64 2.56-2.64 1.68 0 2.6.8 2.6 2.64 0 1.56-.92 2.52-2.6 2.52zm10.48 4.32v.2a4.98 4.98 0 0 1 4.32-2.56c1.12 0 2.04.92 2.04 2.04s-.92 2.04-2.04 2.04c-2.76 0-4.32 1.76-4.32 4.44v8.32c0 1.2-.96 2.16-2.16 2.16-1.2 0-2.16-.96-2.16-2.16V23.68c0-1.2.96-2.16 2.16-2.16 1.2 0 2.16.96 2.16 2.16zm13.16 0v14.48c0 1.2-.96 2.16-2.16 2.16-1.2 0-2.16-.96-2.16-2.16V23.68c0-1.2.96-2.16 2.16-2.16 1.2 0 2.16.96 2.16 2.16zm-2.16-4.32c-1.64 0-2.56-.96-2.56-2.52 0-1.84.92-2.64 2.56-2.64 1.68 0 2.6.8 2.6 2.64 0 1.56-.92 2.52-2.6 2.52z"/><path fill="url(#a)" fill-rule="nonzero" d="M20 9a14 14 0 0 1 26.16 0h-4.42a10 10 0 0 0-8.66-5 10 10 0 0 0-8.66 5H20z" transform="translate(-1)"/><path fill="url(#a)" fill-rule="nonzero" d="M20 54a14 14 0 0 1 26.16 0h-4.42a10 10 0 0 0-8.66-5 10 10 0 0 0-8.66 5H20z" transform="rotate(-180 32.58 49.5)"/></g></svg>