<svg xmlns="http://www.w3.org/2000/svg" width="36" height="35" viewBox="0 0 36 35">
  <defs>
    <linearGradient id="a" x1="-23.76%" x2="162.49%" y1="120.87%" y2="120.87%">
      <stop offset="0%" stop-color="#27E9DE"/>
      <stop offset="43.33%" stop-color="#03A4EC"/>
      <stop offset="100%" stop-color="#2547A8"/>
    </linearGradient>
    <mask id="meeting-gradient" maskUnits="userSpaceOnUse" x="0" y="0" width="36" height="35">
        <path fill="url(#a)" fill-rule="nonzero" d="M22.95 26.62l2.53 6.63a1 1 0 0 1-1.86.72L23 32.35v.11c0 1.4-1.14 2.54-2.54 2.54h-3.92A2.54 2.54 0 0 1 14 32.46v-.63l-.9 2.16a1 1 0 0 1-1.84-.76l2.8-6.76a1 1 0 0 1 1.92.32A1 1 0 0 1 16 27v5.46c0 .3.24.54.54.54h3.92c.3 0 .54-.24.54-.54v-5.28-.07l-.25-.66a1.18 1.18 0 0 0-.93-.45H19a1 1 0 0 1-.67-.26 3.21 3.21 0 0 1 .21-6.41 1 1 0 0 1 0 2 1.21 1.21 0 0 0 0 2.42 1 1 0 0 1 .66.25h.62a3.18 3.18 0 0 1 3.13 2.62zM9.92 7.75c-.17-.44-.6-.75-1.1-.75h-.3a1 1 0 0 1-.73.32 3.21 3.21 0 1 1 0-6.42 1 1 0 1 1 0 2 1.21 1.21 0 0 0-.44 2.34A1 1 0 0 1 8 5h.82c1.5 0 2.75 1.03 3.09 2.42l2.82 7.4a1 1 0 0 1-1.86.7L12 13.27v.2A2.54 2.54 0 0 1 9.46 16H5.54c-1.25 0-2.3-.9-2.5-2.1l-.69 1.65a1 1 0 1 1-1.84-.76L3 8.78V8a1 1 0 0 1 1.97-.26 1 1 0 0 1 .18 1.06L5 9.17v4.29c0 .3.24.54.54.54h3.92a.54.54 0 0 0 .54-.54V8.18c0-.06 0-.13-.02-.19v-.02a1 1 0 0 1-.06-.22zM30.7 7.4c-.21-.25-.53-.4-.88-.4h-.53a1 1 0 0 1-.73.32 3.21 3.21 0 0 1 0-6.42 1 1 0 0 1 0 2 1.21 1.21 0 0 0-.27 2.4A1 1 0 0 1 29 5h.82A3.18 3.18 0 0 1 33 8.18v.08l2.5 6.55a1 1 0 0 1-1.86.72l-.66-1.73a2.54 2.54 0 0 1-2.52 2.2h-3.92A2.54 2.54 0 0 1 24 13.46v-.03l-.88 2.12a1 1 0 1 1-1.84-.76L24 8.19V8a1 1 0 0 1 2 0v5.46c0 .3.24.54.54.54h3.92c.3 0 .54-.24.54-.54V8.63l-.25-.66a1 1 0 0 1-.05-.57zM12.2 26.74a1 1 0 1 1-1.06 1.7 13 13 0 0 1-5.73-8.02 1 1 0 0 1 1.94-.46 11 11 0 0 0 4.85 6.78zm16.65-7.44a1 1 0 1 1 1.98.34 13 13 0 0 1-4.75 8 1 1 0 1 1-1.24-1.57 11 11 0 0 0 4.01-6.77zM14.8 6.96a1 1 0 0 1-.58-1.92 13 13 0 0 1 8.42.26 1 1 0 1 1-.7 1.88 11 11 0 0 0-7.14-.22z"/>
    </mask>
  </defs>
  <g mask="url(#meeting-gradient)">
      <path fill="#606266" fill-rule="nonzero" d="M22.95 26.62l2.53 6.63a1 1 0 0 1-1.86.72L23 32.35v.11c0 1.4-1.14 2.54-2.54 2.54h-3.92A2.54 2.54 0 0 1 14 32.46v-.63l-.9 2.16a1 1 0 0 1-1.84-.76l2.8-6.76a1 1 0 0 1 1.92.32A1 1 0 0 1 16 27v5.46c0 .3.24.54.54.54h3.92c.3 0 .54-.24.54-.54v-5.28-.07l-.25-.66a1.18 1.18 0 0 0-.93-.45H19a1 1 0 0 1-.67-.26 3.21 3.21 0 0 1 .21-6.41 1 1 0 0 1 0 2 1.21 1.21 0 0 0 0 2.42 1 1 0 0 1 .66.25h.62a3.18 3.18 0 0 1 3.13 2.62zM9.92 7.75c-.17-.44-.6-.75-1.1-.75h-.3a1 1 0 0 1-.73.32 3.21 3.21 0 1 1 0-6.42 1 1 0 1 1 0 2 1.21 1.21 0 0 0-.44 2.34A1 1 0 0 1 8 5h.82c1.5 0 2.75 1.03 3.09 2.42l2.82 7.4a1 1 0 0 1-1.86.7L12 13.27v.2A2.54 2.54 0 0 1 9.46 16H5.54c-1.25 0-2.3-.9-2.5-2.1l-.69 1.65a1 1 0 1 1-1.84-.76L3 8.78V8a1 1 0 0 1 1.97-.26 1 1 0 0 1 .18 1.06L5 9.17v4.29c0 .3.24.54.54.54h3.92a.54.54 0 0 0 .54-.54V8.18c0-.06 0-.13-.02-.19v-.02a1 1 0 0 1-.06-.22zM30.7 7.4c-.21-.25-.53-.4-.88-.4h-.53a1 1 0 0 1-.73.32 3.21 3.21 0 0 1 0-6.42 1 1 0 0 1 0 2 1.21 1.21 0 0 0-.27 2.4A1 1 0 0 1 29 5h.82A3.18 3.18 0 0 1 33 8.18v.08l2.5 6.55a1 1 0 0 1-1.86.72l-.66-1.73a2.54 2.54 0 0 1-2.52 2.2h-3.92A2.54 2.54 0 0 1 24 13.46v-.03l-.88 2.12a1 1 0 1 1-1.84-.76L24 8.19V8a1 1 0 0 1 2 0v5.46c0 .3.24.54.54.54h3.92c.3 0 .54-.24.54-.54V8.63l-.25-.66a1 1 0 0 1-.05-.57zM12.2 26.74a1 1 0 1 1-1.06 1.7 13 13 0 0 1-5.73-8.02 1 1 0 0 1 1.94-.46 11 11 0 0 0 4.85 6.78zm16.65-7.44a1 1 0 1 1 1.98.34 13 13 0 0 1-4.75 8 1 1 0 1 1-1.24-1.57 11 11 0 0 0 4.01-6.77zM14.8 6.96a1 1 0 0 1-.58-1.92 13 13 0 0 1 8.42.26 1 1 0 1 1-.7 1.88 11 11 0 0 0-7.14-.22z"/>
  </g>
</svg>